<?xml version="1.0" encoding="utf-8"?>
<!-- Generator: Adobe Illustrator 27.5.0, SVG Export Plug-In . SVG Version: 6.00 Build 0)  -->
<svg version="1.1" xmlns="http://www.w3.org/2000/svg" xmlns:xlink="http://www.w3.org/1999/xlink" x="0px" y="0px"
	 viewBox="0 0 600 600" style="enable-background:new 0 0 600 600;" xml:space="preserve">
<g id="background">
	<rect style="fill:#FFFFFF;" width="600" height="600"/>
</g>
<g id="objects">
	<g>
		<g>
			<g>
				<ellipse style="fill:#DBDBDB;" cx="300" cy="509.614" rx="129.478" ry="15.434"/>
			</g>
		</g>
		<g>
			<path style="fill:#DADADB;" d="M307.369,470.151l36.721-19.987C426.567,405.272,478,318.228,478,223.538l0-95.596
				c0-7.442-5.834-13.619-13.193-13.821c-86.778-2.377-140.612-27.698-158.332-37.499c-4.027-2.228-8.922-2.228-12.95,0
				c-17.72,9.801-71.554,35.121-158.332,37.499c-7.359,0.202-13.193,6.379-13.193,13.821l0,95.596
				c0,94.69,51.433,181.734,133.91,226.626l36.721,19.987C297.231,472.655,302.769,472.655,307.369,470.151z"/>
			<path style="fill:#21A2DB;" d="M460.4,139.196v81.124c0,90.305-48.813,172.959-127.383,215.734l-26.049,14.172
				c-2.166,1.177-4.567,1.777-6.968,1.777s-4.802-0.6-6.968-1.777l-26.049-14.172C188.414,393.279,139.6,310.625,139.6,220.32
				v-81.124c0-3.837,3.037-6.98,6.862-7.251c73.92-5.026,124.675-24.613,150.359-37.16c1.024-0.506,2.095-0.753,3.178-0.753
				s2.154,0.247,3.178,0.753c25.684,12.548,76.451,32.134,150.359,37.16C457.363,132.216,460.4,135.359,460.4,139.196z"/>
			<path style="fill:#158CB5;" d="M460.4,139.196v81.124c0,90.305-48.813,172.959-127.383,215.734l-26.049,14.172
				c-2.166,1.177-4.567,1.777-6.968,1.777V94.032c1.083,0,2.154,0.247,3.178,0.753c25.684,12.548,76.451,32.134,150.359,37.16
				C457.363,132.216,460.4,135.359,460.4,139.196z"/>
			<path style="fill:#FFFFFF;" d="M360.996,240.919H239.004c-7.263,0-13.16,5.897-13.16,13.16v97.273
				c0,7.263,5.897,13.16,13.16,13.16h121.992c7.263,0,13.16-5.897,13.16-13.16v-97.273
				C374.155,246.816,368.258,240.919,360.996,240.919z M311.771,308.883v9.723c0,6.497-5.273,11.771-11.771,11.771
				s-11.771-5.273-11.771-11.771v-9.723c-5.003-3.625-8.24-9.523-8.24-16.173c0-11.053,8.958-20.01,20.01-20.01
				s20.01,8.957,20.01,20.01C320.01,299.361,316.773,305.258,311.771,308.883z"/>
			<path style="fill:#FFFFFF;" d="M343.552,204.477v15.255c0,5.201-4.216,9.417-9.417,9.417l0,0c-5.201,0-9.417-4.216-9.417-9.417
				v-14.648c0-13.386-10.39-24.802-23.766-25.307c-14.062-0.531-25.671,10.754-25.671,24.701v27.026h-18.833v-26.317
				c0-23.735,18.701-43.65,42.428-44.247c12.475-0.314,23.785,4.614,31.916,12.745C338.679,181.571,343.552,192.447,343.552,204.477
				z"/>
		</g>
	</g>
</g>
</svg>
